<?xml version="1.0" standalone="no"?>
<!DOCTYPE svg PUBLIC "-//W3C//DTD SVG 20010904//EN"
 "http://www.w3.org/TR/2001/REC-SVG-20010904/DTD/svg10.dtd">
<svg version="1.0" xmlns="http://www.w3.org/2000/svg"
 width="626.000000pt" height="626.000000pt" viewBox="0 0 626.000000 626.000000"
 preserveAspectRatio="xMidYMid meet">
<metadata>
Created by potrace 1.16, written by Peter Selinger 2001-2019
</metadata>
<g transform="translate(0.000000,626.000000) scale(0.100000,-0.100000)"
fill="#000000" stroke="none">
<path d="M1210 4951 c-24 -12 -39 -30 -49 -58 -18 -49 -9 -87 29 -124 l28 -29
257 0 257 0 27 -27 c21 -22 34 -55 59 -153 41 -163 100 -391 392 -1520 173
-670 248 -945 265 -971 14 -21 42 -45 69 -57 l46 -22 955 0 c1049 0 997 -3
1030 60 8 16 15 43 15 61 0 35 -31 93 -58 106 -9 4 -433 10 -941 13 l-925 5
-18 70 c-9 39 -18 76 -18 83 0 9 195 12 940 12 917 0 942 1 979 20 45 22 75
58 90 103 14 41 231 1455 226 1470 -2 7 -6 24 -9 39 -8 34 -59 93 -100 116
-29 16 -131 17 -1311 22 l-1279 5 -98 380 c-77 297 -103 384 -119 398 -19 15
-52 17 -363 17 -313 0 -344 -2 -376 -19z m3393 -1039 c16 -17 11 -59 -78 -631
-71 -467 -98 -618 -111 -632 -16 -18 -49 -19 -915 -19 l-898 0 -25 23 c-21 19
-45 101 -175 609 -83 323 -151 596 -151 607 0 12 9 30 20 41 20 20 33 20 1168
20 1099 0 1150 -1 1165 -18z"/>
<path d="M3424 3780 c-281 -42 -475 -293 -436 -565 37 -255 250 -435 517 -435
351 0 598 338 486 664 -79 228 -324 373 -567 336z m266 -111 c93 -45 169 -118
213 -208 30 -62 32 -71 32 -181 0 -103 -3 -121 -26 -170 -31 -67 -116 -161
-176 -197 -231 -135 -522 -46 -636 195 -30 63 -32 74 -32 177 1 98 3 116 27
168 32 67 114 158 178 195 85 50 136 63 245 60 91 -3 107 -7 175 -39z"/>
<path d="M3406 3604 c-12 -12 -16 -38 -16 -115 l0 -99 -99 0 c-127 0 -131 -4
-131 -110 0 -103 9 -110 137 -110 l93 0 0 -93 c0 -128 7 -137 109 -137 106 0
111 7 111 133 l0 97 93 0 c128 0 137 7 137 110 0 106 -4 110 -131 110 l-99 0
0 96 c0 132 -2 134 -105 134 -63 0 -87 -4 -99 -16z"/>
<path d="M2830 1811 c-199 -61 -256 -315 -102 -453 113 -102 302 -80 388 45
103 149 36 346 -135 405 -38 13 -112 14 -151 3z m140 -170 c28 -20 46 -76 37
-113 -8 -32 -52 -76 -80 -80 -59 -10 -122 33 -133 88 -8 42 12 82 56 112 39
26 78 24 120 -7z"/>
<path d="M4017 1806 c-110 -40 -177 -134 -177 -249 0 -79 19 -127 75 -184 166
-171 448 -56 448 184 0 114 -68 210 -176 250 -43 16 -124 15 -170 -1z m128
-150 c59 -25 82 -99 48 -156 -37 -63 -114 -71 -169 -16 -44 44 -46 90 -7 136
42 50 73 59 128 36z"/>
</g>
</svg>
