<svg version="1.1" id="Layer_1" xmlns="http://www.w3.org/2000/svg" xmlns:xlink="http://www.w3.org/1999/xlink" x="0px" y="0px"
	 width="100%" viewBox="0 0 132 221" enable-background="new 0 0 132 221" xml:space="preserve">
<path fill="#F3CE17" opacity="1.000000" stroke="none" 
	d="
M101.000000,222.000000 
	C99.933212,222.000000 98.866425,222.000000 97.336365,221.663269 
	C94.188232,219.178436 91.133858,217.356079 88.894188,214.815521 
	C83.991898,209.254547 77.282066,207.581192 70.771461,205.174164 
	C64.103798,202.709076 56.702202,200.848587 51.303852,196.590866 
	C35.421535,184.064377 22.588730,168.612091 12.600597,150.929871 
	C11.555616,149.079895 10.728573,147.030655 10.212447,144.970627 
	C7.160007,132.787262 4.429080,120.697342 3.370795,107.967125 
	C2.213457,94.045380 5.512965,81.771500 10.396409,69.472633 
	C13.744384,61.040821 18.110155,53.014786 21.504644,44.599102 
	C23.211243,40.368061 24.410154,35.715611 24.711828,31.178797 
	C25.377916,21.161663 33.849438,12.922601 44.079491,13.366956 
	C44.118111,13.554184 44.250778,13.913118 44.204124,14.274027 
	C44.111271,15.117867 44.065071,15.600797 43.650562,16.110638 
	C41.372047,17.370436 39.461834,18.603323 37.285233,19.981804 
	C36.770275,20.854265 36.521713,21.581129 36.198341,22.602730 
	C35.685650,23.567749 35.247765,24.238028 34.528404,24.974611 
	C33.832600,26.027458 33.418262,27.014000 32.952732,28.312828 
	C32.786694,29.030647 32.671844,29.436178 32.280407,29.996679 
	C31.842995,30.924509 31.682171,31.697365 31.485050,32.844208 
	C31.245031,34.454830 31.041307,35.691475 30.550917,37.043045 
	C30.106607,38.428013 29.948965,39.698051 29.799919,41.390541 
	C29.799812,43.221272 29.791113,44.629551 29.596581,46.335480 
	C29.751234,50.900826 29.666628,55.339413 34.089108,58.158249 
	C34.194485,58.308022 34.314697,58.653988 34.286564,58.980373 
	C34.822964,59.879356 35.387493,60.451954 36.124481,61.227673 
	C36.602695,61.866337 36.908455,62.301888 37.219372,63.089737 
	C38.223274,64.235802 39.222015,65.029564 40.527142,65.982742 
	C43.863400,67.816216 46.893276,69.490288 50.043427,71.478798 
	C53.256802,73.042267 56.349903,74.291306 59.726646,75.631378 
	C60.661404,76.171761 61.312527,76.621094 62.073555,77.378479 
	C62.928631,77.985191 63.673805,78.283875 64.739410,78.617981 
	C65.676491,78.834366 66.293129,79.015320 67.024780,79.509857 
	C68.526970,80.460922 69.914154,81.098412 71.577103,81.786514 
	C72.207542,81.953819 72.562233,82.070511 73.015076,82.463890 
	C74.099205,82.544571 75.085175,82.348564 76.298309,81.887131 
	C76.759575,80.733627 76.993668,79.845558 77.407379,78.680725 
	C77.120918,76.908943 76.654839,75.413918 76.131058,73.469025 
	C76.043434,69.679932 76.013512,66.340698 76.171478,62.722103 
	C75.749763,59.903603 75.140167,57.364471 74.429199,54.478958 
	C74.249039,53.417061 74.170235,52.701546 74.297516,51.707588 
	C72.730515,47.584595 70.957420,43.740036 68.923920,39.684280 
	C66.348450,37.091305 64.033386,34.709530 61.732048,31.969381 
	C60.728130,30.829258 59.710487,30.047510 58.429474,29.045506 
	C56.492825,27.263878 54.819542,25.702505 53.695351,24.062546 
	C54.971870,23.861481 55.699299,23.739002 56.670082,23.732407 
	C57.225555,24.026285 57.537682,24.204279 57.995445,24.687038 
	C60.103558,25.653172 62.066036,26.314541 64.379944,27.083473 
	C68.245247,28.418139 71.759117,29.645241 75.367065,31.126041 
	C79.310791,33.895546 83.160431,36.411354 87.005692,38.960789 
	C87.001312,38.994419 87.069115,38.996307 87.172379,39.312996 
	C89.771049,41.167011 92.266464,42.704334 94.816666,44.203735 
	C94.871452,44.165810 94.796562,44.276039 94.912651,44.560760 
	C96.015640,45.524124 97.002548,46.202759 98.152184,47.139259 
	C98.925995,47.932552 99.537064,48.467983 100.218353,49.268860 
	C100.724556,49.847557 101.160545,50.160809 101.732773,50.653610 
	C102.088654,51.048447 102.346298,51.198490 102.748352,51.592110 
	C104.241104,53.231934 105.627434,54.562935 107.021072,55.928352 
	C107.028389,55.962772 107.094757,55.939388 107.129517,56.275242 
	C108.457657,57.974293 109.751038,59.337490 111.253746,60.926773 
	C111.783508,61.409592 112.103951,61.666332 112.416382,62.260300 
	C114.194122,65.180191 115.979866,67.762856 117.841721,70.510101 
	C117.917839,70.674690 118.209419,70.890350 118.211052,71.266968 
	C119.742638,74.931335 121.520966,78.128418 122.760048,81.522362 
	C128.478378,97.185272 132.137360,113.197556 130.208176,130.405151 
	C130.202072,131.486969 130.278992,132.211426 130.252884,133.334778 
	C129.552658,136.652985 128.737732,139.546997 128.394806,142.495880 
	C126.631088,157.662201 121.490448,171.783569 115.410324,185.648361 
	C112.366638,192.589005 109.226212,199.519547 106.777542,206.676376 
	C105.364716,210.805695 105.243370,215.376892 104.227783,219.800995 
	C102.943237,220.568542 101.971619,221.284271 101.000000,222.000000 
z"/>
<path fill="#FEFDFB" opacity="1.000000" stroke="none" 
	d="
M44.040871,13.179728 
	C33.849438,12.922601 25.377916,21.161663 24.711828,31.178797 
	C24.410154,35.715611 23.211243,40.368061 21.504644,44.599102 
	C18.110155,53.014786 13.744384,61.040821 10.396409,69.472633 
	C5.512965,81.771500 2.213457,94.045380 3.370795,107.967125 
	C4.429080,120.697342 7.160007,132.787262 10.212447,144.970627 
	C10.728573,147.030655 11.555616,149.079895 12.600597,150.929871 
	C22.588730,168.612091 35.421535,184.064377 51.303852,196.590866 
	C56.702202,200.848587 64.103798,202.709076 70.771461,205.174164 
	C77.282066,207.581192 83.991898,209.254547 88.894188,214.815521 
	C91.133858,217.356079 94.188232,219.178436 96.936546,221.663269 
	C65.036484,222.000000 33.072971,222.000000 1.054729,222.000000 
	C1.054729,148.453842 1.054729,74.907639 1.054729,1.000000 
	C23.019575,1.000000 45.041130,1.000000 67.391449,1.350824 
	C66.552338,2.176702 65.346878,2.576745 64.223000,3.139659 
	C59.070599,5.720325 53.941025,8.346566 48.600475,10.987700 
	C48.115238,11.139067 47.963417,11.352230 47.616913,11.802599 
	C46.208019,12.357742 45.124443,12.768735 44.040871,13.179728 
z"/>
<path fill="#FEFEFE" opacity="1.000000" stroke="none" 
	d="
M100.148132,49.003414 
	C99.537064,48.467983 98.925995,47.932552 98.098892,46.816368 
	C96.854103,45.582424 95.825333,44.929230 94.796562,44.276039 
	C94.796562,44.276039 94.871452,44.165810 94.750778,43.865814 
	C92.109779,42.042648 89.589447,40.519478 87.069115,38.996307 
	C87.069115,38.996307 87.001312,38.994419 86.954399,38.622536 
	C83.934082,35.775185 80.960678,33.299709 78.304298,30.742775 
	C79.273178,30.617815 79.925026,30.574314 80.980911,30.669250 
	C84.616371,29.744387 87.847809,28.681087 91.398888,27.482803 
	C92.174118,27.272831 92.629700,27.197845 93.320053,27.300991 
	C95.711937,26.429443 97.869057,25.379761 100.314896,24.155289 
	C101.623085,23.536089 102.642570,23.091677 103.973175,22.709373 
	C104.851547,22.251102 105.418785,21.730721 106.261566,20.997265 
	C108.070518,18.491350 109.603943,16.198511 111.293098,13.691537 
	C110.678017,12.646418 109.907188,11.815432 109.075165,10.985486 
	C109.013969,10.986526 109.012924,10.864114 108.962563,10.544422 
	C106.970497,9.478002 105.028793,8.731271 102.731003,7.990479 
	C101.918015,7.874362 101.461105,7.752306 100.874741,7.312856 
	C99.683014,6.816474 98.620743,6.637489 97.286987,6.470424 
	C96.667870,6.387225 96.320229,6.292107 95.798561,5.897497 
	C93.749687,4.065336 91.874847,2.532668 90.000000,1.000000 
	C104.296783,1.000000 118.593567,1.000000 133.000000,1.000000 
	C133.000000,43.687504 133.000000,86.375092 132.707703,129.513840 
	C132.220566,129.952576 132.025742,129.940170 131.884644,129.468201 
	C133.538177,112.146439 130.208206,96.047173 124.058746,80.476700 
	C122.703918,77.046280 120.189735,74.073738 118.209419,70.890350 
	C118.209419,70.890350 117.917839,70.674690 117.860779,70.142502 
	C116.010612,67.047905 114.217499,64.485489 112.424393,61.923073 
	C112.103951,61.666332 111.783508,61.409592 111.210693,60.603157 
	C109.670464,58.682098 108.382614,57.310741 107.094757,55.939388 
	C107.094757,55.939388 107.028389,55.962772 107.029465,55.572014 
	C105.567665,53.881935 104.104797,52.582615 102.641930,51.283291 
	C102.346298,51.198490 102.088654,51.048447 101.704659,50.362869 
	C101.076248,49.596188 100.612190,49.299801 100.148132,49.003414 
z"/>
<path fill="#FEFEFD" opacity="1.000000" stroke="none" 
	d="
M131.830917,129.927780 
	C132.025742,129.940170 132.220566,129.952576 132.707703,129.982498 
	C133.000000,160.558075 133.000000,191.116150 133.000000,222.000000 
	C122.648048,222.000000 112.292686,222.000000 101.468658,222.000000 
	C101.971619,221.284271 102.943237,220.568542 104.616348,219.782715 
	C106.202866,218.042404 107.992195,216.276672 107.827454,214.717377 
	C106.682709,203.882065 113.737427,195.757446 116.838081,186.359314 
	C119.002060,179.800278 122.106499,173.542297 124.119774,166.945038 
	C126.659241,158.623505 128.707275,150.135178 130.556519,141.629517 
	C131.155106,138.876328 130.459503,135.841751 130.355896,132.935898 
	C130.278992,132.211426 130.202072,131.486969 130.466919,130.411713 
	C131.149414,130.016556 131.490173,129.972168 131.830917,129.927780 
z"/>
<path fill="#53655A" opacity="1.000000" stroke="none" 
	d="
M95.972588,6.196989 
	C96.320229,6.292107 96.667870,6.387225 97.462433,6.746715 
	C98.940964,7.217474 99.972580,7.423863 101.004196,7.630251 
	C101.461105,7.752306 101.918015,7.874362 102.947021,8.235887 
	C105.350380,9.271608 107.181656,10.067860 109.012924,10.864113 
	C109.012924,10.864114 109.013969,10.986526 109.099411,11.288776 
	C109.835693,12.362573 110.486526,13.134120 111.137360,13.905668 
	C109.603943,16.198511 108.070518,18.491350 105.967384,20.964085 
	C104.819138,21.645071 104.240593,22.146166 103.662056,22.647263 
	C102.642570,23.091677 101.623085,23.536089 99.962456,24.111944 
	C97.242638,25.203213 95.163963,26.163036 93.085289,27.122860 
	C92.629700,27.197845 92.174118,27.272831 91.037468,27.392204 
	C87.096565,28.467997 83.836723,29.499405 80.576881,30.530813 
	C79.925026,30.574314 79.273178,30.617815 78.060486,30.577625 
	C76.757431,30.620071 76.015213,30.746206 75.272987,30.872343 
	C71.759117,29.645241 68.245247,28.418139 64.176956,26.818718 
	C61.698296,25.758358 59.774052,25.070316 57.849804,24.382275 
	C57.537682,24.204279 57.225555,24.026285 56.576660,23.407528 
	C53.860596,20.309004 51.481300,17.651241 49.467201,14.846786 
	C53.547482,14.489662 57.262554,14.279231 61.351601,14.222491 
	C66.682037,14.043707 71.638496,13.711231 76.960663,13.443514 
	C78.558441,13.423433 79.790512,13.338593 81.362213,13.452957 
	C84.729317,13.652164 87.756775,13.652164 90.784233,13.652164 
	C90.797249,13.088824 90.810265,12.525485 90.823280,11.962146 
	C87.513916,11.726524 84.204559,11.490904 80.489624,11.163592 
	C74.142792,10.911851 68.202126,10.660462 62.260078,10.621614 
	C57.775387,10.592295 53.288925,10.834877 48.803249,10.956442 
	C53.941025,8.346566 59.070599,5.720325 64.223000,3.139659 
	C65.346878,2.576745 66.552338,2.176702 67.860107,1.350824 
	C72.356903,1.000000 76.713799,1.000000 81.671783,1.386137 
	C83.464478,2.196716 84.656090,2.621159 85.847710,3.045602 
	C85.898476,2.363735 85.949242,1.681867 86.000000,1.000000 
	C86.444443,1.000000 86.888893,1.000000 87.119339,1.050827 
	C89.927765,2.800098 92.950172,4.498544 95.972588,6.196989 
z"/>
<path fill="#DFDBBF" opacity="1.000000" stroke="none" 
	d="
M95.798561,5.897497 
	C92.950172,4.498544 89.927765,2.800098 87.452675,1.050827 
	C88.444443,1.000000 88.888893,1.000000 89.666672,1.000000 
	C91.874847,2.532668 93.749687,4.065336 95.798561,5.897497 
z"/>
<path fill="#DFDBBF" opacity="1.000000" stroke="none" 
	d="
M85.600006,1.000000 
	C85.949242,1.681867 85.898476,2.363735 85.847710,3.045602 
	C84.656090,2.621159 83.464478,2.196716 82.136429,1.386137 
	C83.066673,1.000000 84.133339,1.000000 85.600006,1.000000 
z"/>
<path fill="#526454" opacity="1.000000" stroke="none" 
	d="
M30.837585,36.928116 
	C31.041307,35.691475 31.245031,34.454830 31.729084,32.662560 
	C32.191940,31.351854 32.374466,30.596781 32.556995,29.841707 
	C32.671844,29.436178 32.786694,29.030647 33.222130,28.149841 
	C33.965103,26.752480 34.387489,25.830393 34.809875,24.908306 
	C35.247765,24.238028 35.685650,23.567749 36.465828,22.456829 
	C37.055958,21.289530 37.303791,20.562870 37.551628,19.836210 
	C39.461834,18.603323 41.372047,17.370436 43.873039,16.343430 
	C45.193645,16.996017 45.923473,17.442720 46.763451,18.167622 
	C48.964485,20.344257 51.055374,22.242695 53.146263,24.141132 
	C54.819542,25.702505 56.492825,27.263878 58.541725,29.342010 
	C59.851006,30.681767 60.784668,31.504763 61.718330,32.327759 
	C64.033386,34.709530 66.348450,37.091305 68.952774,40.044083 
	C70.858513,44.405399 72.474976,48.195713 74.091431,51.986027 
	C74.170235,52.701546 74.249039,53.417061 74.330971,54.875526 
	C74.883934,58.079475 75.433762,60.540474 75.983589,63.001469 
	C76.013512,66.340698 76.043434,69.679932 76.030640,73.850555 
	C76.401199,76.107132 76.814476,77.532303 77.227760,78.957481 
	C76.993668,79.845558 76.759575,80.733627 75.906212,81.819733 
	C74.496933,82.074242 73.706924,82.130722 72.916916,82.187202 
	C72.562233,82.070511 72.207542,81.953819 71.418945,81.497559 
	C69.626610,80.504074 68.268196,79.850174 66.909775,79.196274 
	C66.293129,79.015320 65.676491,78.834366 64.575043,78.361626 
	C63.381382,77.736702 62.672516,77.403564 61.963646,77.070435 
	C61.312527,76.621094 60.661404,76.171761 59.519089,75.366302 
	C55.992977,73.728249 52.958065,72.446304 49.923153,71.164360 
	C46.893276,69.490288 43.863400,67.816216 40.423340,65.682518 
	C39.080177,64.394402 38.147194,63.565922 37.214214,62.737438 
	C36.908455,62.301888 36.602695,61.866337 36.100121,60.923317 
	C35.373768,59.828560 34.844231,59.241276 34.314697,58.653988 
	C34.314697,58.653988 34.194485,58.308022 34.036652,57.791306 
	C32.513348,53.529007 31.147881,49.783417 29.782412,46.037830 
	C29.791113,44.629551 29.799812,43.221272 30.047920,41.126389 
	C30.470745,39.269230 30.654165,38.098675 30.837585,36.928116 
M64.114426,62.324242 
	C58.210953,51.448097 52.307480,40.571957 46.404011,29.695812 
	C43.708069,36.707039 58.101517,62.990475 66.394379,68.069275 
	C65.584862,65.856262 65.053131,64.402641 64.114426,62.324242 
z"/>
<path fill="#EFE8C5" opacity="1.000000" stroke="none" 
	d="
M130.252869,133.334778 
	C130.459503,135.841751 131.155106,138.876328 130.556519,141.629517 
	C128.707275,150.135178 126.659241,158.623505 124.119774,166.945038 
	C122.106499,173.542297 119.002060,179.800278 116.838081,186.359314 
	C113.737427,195.757446 106.682709,203.882065 107.827454,214.717377 
	C107.992195,216.276672 106.202866,218.042404 104.929283,219.730896 
	C105.243370,215.376892 105.364716,210.805695 106.777542,206.676376 
	C109.226212,199.519547 112.366638,192.589005 115.410324,185.648361 
	C121.490448,171.783569 126.631088,157.662201 128.394806,142.495880 
	C128.737732,139.546997 129.552658,136.652985 130.252869,133.334778 
z"/>
<path fill="#EFE8C5" opacity="1.000000" stroke="none" 
	d="
M131.884644,129.468201 
	C131.490173,129.972168 131.149414,130.016556 130.549927,130.054367 
	C132.137360,113.197556 128.478378,97.185272 122.760048,81.522362 
	C121.520966,78.128418 119.742638,74.931335 118.211052,71.266968 
	C120.189735,74.073738 122.703918,77.046280 124.058746,80.476700 
	C130.208206,96.047173 133.538177,112.146439 131.884644,129.468201 
z"/>
<path fill="#D2B823" opacity="1.000000" stroke="none" 
	d="
M46.653301,17.889423 
	C45.923473,17.442720 45.193645,16.996017 44.241341,16.316521 
	C44.065071,15.600797 44.111271,15.117867 44.553577,14.286558 
	C45.947197,13.178269 46.944714,12.418360 47.942230,11.658449 
	C47.963417,11.352230 48.115238,11.139067 48.600475,10.987700 
	C53.288925,10.834877 57.775387,10.592295 62.260078,10.621614 
	C68.202126,10.660462 74.142792,10.911851 80.507462,11.496164 
	C80.961449,12.364869 80.992012,12.809310 81.022583,13.253752 
	C79.790512,13.338593 78.558441,13.423433 76.452591,13.351673 
	C70.711739,13.486315 65.844688,13.777557 60.977631,14.068800 
	C57.262554,14.279231 53.547482,14.489662 49.145119,15.054204 
	C47.856319,16.235352 47.254810,17.062387 46.653301,17.889423 
z"/>
<path fill="#BDAB2D" opacity="1.000000" stroke="none" 
	d="
M46.763451,18.167622 
	C47.254810,17.062387 47.856319,16.235352 48.779915,15.200896 
	C51.481300,17.651241 53.860596,20.309004 56.333313,23.291645 
	C55.699299,23.739002 54.971870,23.861481 53.695351,24.062546 
	C51.055374,22.242695 48.964485,20.344257 46.763451,18.167622 
z"/>
<path fill="#DFDBBF" opacity="1.000000" stroke="none" 
	d="
M75.367065,31.126041 
	C76.015213,30.746206 76.757431,30.620071 77.743469,30.659086 
	C80.960678,33.299709 83.934082,35.775185 86.958771,38.588905 
	C83.160431,36.411354 79.310791,33.895546 75.367065,31.126041 
z"/>
<path fill="#BDAB2D" opacity="1.000000" stroke="none" 
	d="
M74.297516,51.707588 
	C72.474976,48.195713 70.858513,44.405399 69.213181,40.255280 
	C70.957420,43.740036 72.730515,47.584595 74.297516,51.707588 
z"/>
<path fill="#BDAB2D" opacity="1.000000" stroke="none" 
	d="
M29.596581,46.335480 
	C31.147881,49.783417 32.513348,53.529007 33.931274,57.641537 
	C29.666628,55.339413 29.751234,50.900826 29.596581,46.335480 
z"/>
<path fill="#EFE8C5" opacity="1.000000" stroke="none" 
	d="
M112.416382,62.260296 
	C114.217499,64.485489 116.010612,67.047905 117.784668,69.977921 
	C115.979866,67.762856 114.194122,65.180191 112.416382,62.260296 
z"/>
<path fill="#BDAB2D" opacity="1.000000" stroke="none" 
	d="
M50.043427,71.478798 
	C52.958065,72.446304 55.992977,73.728249 59.235447,75.275269 
	C56.349903,74.291306 53.256802,73.042267 50.043427,71.478798 
z"/>
<path fill="#DFDBBF" opacity="1.000000" stroke="none" 
	d="
M87.172379,39.312996 
	C89.589447,40.519478 92.109779,42.042648 94.695999,43.903740 
	C92.266464,42.704334 89.771049,41.167011 87.172379,39.312996 
z"/>
<path fill="#BDAB2D" opacity="1.000000" stroke="none" 
	d="
M76.171478,62.722103 
	C75.433762,60.540474 74.883934,58.079475 74.432343,55.221909 
	C75.140167,57.364471 75.749763,59.903603 76.171478,62.722103 
z"/>
<path fill="#BDAB2D" opacity="1.000000" stroke="none" 
	d="
M57.995445,24.687038 
	C59.774052,25.070316 61.698296,25.758358 63.825527,26.711155 
	C62.066036,26.314541 60.103558,25.653172 57.995445,24.687038 
z"/>
<path fill="#DFDBBF" opacity="1.000000" stroke="none" 
	d="
M102.748352,51.592110 
	C104.104797,52.582615 105.567665,53.881935 107.022141,55.537598 
	C105.627434,54.562935 104.241104,53.231934 102.748352,51.592110 
z"/>
<path fill="#EFE8C5" opacity="1.000000" stroke="none" 
	d="
M107.129517,56.275242 
	C108.382614,57.310741 109.670464,58.682098 111.001373,60.377075 
	C109.751038,59.337490 108.457657,57.974293 107.129517,56.275242 
z"/>
<path fill="#BDAB2D" opacity="1.000000" stroke="none" 
	d="
M77.407379,78.680725 
	C76.814476,77.532303 76.401199,76.107132 76.088333,74.300415 
	C76.654839,75.413918 77.120918,76.908943 77.407379,78.680725 
z"/>
<path fill="#BDAB2D" opacity="1.000000" stroke="none" 
	d="
M67.024780,79.509857 
	C68.268196,79.850174 69.626610,80.504074 71.143188,81.446938 
	C69.914154,81.098412 68.526970,80.460922 67.024780,79.509857 
z"/>
<path fill="#BDAB2D" opacity="1.000000" stroke="none" 
	d="
M30.550919,37.043045 
	C30.654165,38.098675 30.470745,39.269230 30.039324,40.703941 
	C29.948965,39.698051 30.106607,38.428013 30.550919,37.043045 
z"/>
<path fill="#BDAB2D" opacity="1.000000" stroke="none" 
	d="
M61.732048,31.969381 
	C60.784668,31.504763 59.851006,30.681767 58.805092,29.562267 
	C59.710487,30.047510 60.728130,30.829258 61.732048,31.969381 
z"/>
<path fill="#BDAB2D" opacity="1.000000" stroke="none" 
	d="
M37.219372,63.089737 
	C38.147194,63.565922 39.080177,64.394402 40.116959,65.523109 
	C39.222015,65.029564 38.223274,64.235802 37.219372,63.089737 
z"/>
<path fill="#DFDBBF" opacity="1.000000" stroke="none" 
	d="
M94.912651,44.560760 
	C95.825333,44.929230 96.854103,45.582424 97.936157,46.558510 
	C97.002548,46.202759 96.015640,45.524124 94.912651,44.560760 
z"/>
<path fill="#BDAB2D" opacity="1.000000" stroke="none" 
	d="
M34.528404,24.974611 
	C34.387489,25.830393 33.965103,26.752480 33.273323,27.837555 
	C33.418262,27.014000 33.832600,26.027458 34.528404,24.974611 
z"/>
<path fill="#BDAB2D" opacity="1.000000" stroke="none" 
	d="
M73.015076,82.463890 
	C73.706924,82.130722 74.496933,82.074242 75.679047,82.085159 
	C75.085175,82.348564 74.099205,82.544571 73.015076,82.463890 
z"/>
<path fill="#BDAB2D" opacity="1.000000" stroke="none" 
	d="
M47.616913,11.802600 
	C46.944714,12.418360 45.947197,13.178269 44.600227,13.925650 
	C44.250778,13.913118 44.118111,13.554184 44.079491,13.366955 
	C45.124443,12.768735 46.208019,12.357742 47.616913,11.802600 
z"/>
<path fill="#BDAB2D" opacity="1.000000" stroke="none" 
	d="
M34.286564,58.980373 
	C34.844231,59.241276 35.373768,59.828560 35.927666,60.720200 
	C35.387493,60.451954 34.822964,59.879356 34.286564,58.980373 
z"/>
<path fill="#BDAB2D" opacity="1.000000" stroke="none" 
	d="
M37.285233,19.981804 
	C37.303791,20.562870 37.055958,21.289530 36.540638,22.162090 
	C36.521713,21.581129 36.770275,20.854265 37.285233,19.981804 
z"/>
<path fill="#BDAB2D" opacity="1.000000" stroke="none" 
	d="
M62.073555,77.378479 
	C62.672516,77.403564 63.381382,77.736702 64.254608,78.326195 
	C63.673805,78.283875 62.928631,77.985191 62.073555,77.378479 
z"/>
<path fill="#BDAB2D" opacity="1.000000" stroke="none" 
	d="
M32.280407,29.996679 
	C32.374466,30.596781 32.191940,31.351854 31.765381,32.288574 
	C31.682171,31.697365 31.842995,30.924509 32.280407,29.996679 
z"/>
<path fill="#DFDBBF" opacity="1.000000" stroke="none" 
	d="
M100.218353,49.268860 
	C100.612190,49.299801 101.076248,49.596188 101.568420,50.183315 
	C101.160545,50.160809 100.724556,49.847557 100.218353,49.268860 
z"/>
<path fill="#DFDBBF" opacity="1.000000" stroke="none" 
	d="
M80.980911,30.669250 
	C83.836723,29.499405 87.096565,28.467997 90.717827,27.527187 
	C87.847809,28.681087 84.616371,29.744387 80.980911,30.669250 
z"/>
<path fill="#DFDBBF" opacity="1.000000" stroke="none" 
	d="
M93.320053,27.300993 
	C95.163963,26.163036 97.242638,25.203213 99.673752,24.286732 
	C97.869057,25.379761 95.711937,26.429443 93.320053,27.300993 
z"/>
<path fill="#DFDBBF" opacity="1.000000" stroke="none" 
	d="
M108.962563,10.544421 
	C107.181656,10.067860 105.350380,9.271608 103.303101,8.229948 
	C105.028793,8.731271 106.970497,9.478002 108.962563,10.544421 
z"/>
<path fill="#DFDBBF" opacity="1.000000" stroke="none" 
	d="
M111.293098,13.691536 
	C110.486526,13.134120 109.835693,12.362573 109.160614,11.287735 
	C109.907188,11.815432 110.678017,12.646418 111.293098,13.691536 
z"/>
<path fill="#DFDBBF" opacity="1.000000" stroke="none" 
	d="
M100.874741,7.312855 
	C99.972580,7.423863 98.940964,7.217474 97.733910,6.734795 
	C98.620743,6.637489 99.683014,6.816474 100.874741,7.312855 
z"/>
<path fill="#DFDBBF" opacity="1.000000" stroke="none" 
	d="
M103.973175,22.709373 
	C104.240593,22.146166 104.819138,21.645071 105.691849,21.177158 
	C105.418785,21.730721 104.851547,22.251102 103.973175,22.709373 
z"/>
<path fill="#BDAB2D" opacity="1.000000" stroke="none" 
	d="
M61.351601,14.222492 
	C65.844688,13.777557 70.711739,13.486315 76.086876,13.286913 
	C71.638496,13.711231 66.682037,14.043707 61.351601,14.222492 
z"/>
<path fill="#AB9E34" opacity="1.000000" stroke="none" 
	d="
M81.362221,13.452957 
	C80.992012,12.809310 80.961449,12.364869 80.913040,11.587856 
	C84.204559,11.490904 87.513916,11.726524 90.823280,11.962146 
	C90.810265,12.525485 90.797249,13.088824 90.784233,13.652164 
	C87.756775,13.652164 84.729317,13.652164 81.362221,13.452957 
z"/>
<path fill="#D6BA21" opacity="1.000000" stroke="none" 
	d="
M64.317909,62.636635 
	C65.053131,64.402641 65.584862,65.856262 66.394379,68.069275 
	C58.101517,62.990475 43.708069,36.707039 46.404011,29.695812 
	C52.307480,40.571957 58.210953,51.448097 64.317909,62.636635 
z"/>
</svg>